<svg width="16" height="16" viewBox="0 0 16 16" fill="none" xmlns="http://www.w3.org/2000/svg">
<g id="linkedin 1" clip-path="url(#clip0_593751_827)">
<path id="Vector" d="M15.996 15.9999V15.9992H16V10.1312C16 7.26053 15.382 5.04919 12.026 5.04919C10.4127 5.04919 9.33003 5.93453 8.88803 6.77386H8.84137V5.31719H5.65936V15.9992H8.9727V10.7099C8.9727 9.31719 9.2367 7.97053 10.9614 7.97053C12.6607 7.97053 12.686 9.55986 12.686 10.7992V15.9999H15.996Z" fill="#F4F4FD"/>
<path id="Vector_2" d="M0.264038 5.31787H3.58137V15.9999H0.264038V5.31787Z" fill="#F4F4FD"/>
<path id="Vector_3" d="M1.92136 -0.00012207C0.860697 -0.00012207 3.05176e-05 0.860545 3.05176e-05 1.92121C3.05176e-05 2.98188 0.860697 3.86055 1.92136 3.86055C2.98203 3.86055 3.8427 2.98188 3.8427 1.92121C3.84203 0.860545 2.98136 -0.00012207 1.92136 -0.00012207V-0.00012207Z" fill="#F4F4FD"/>
</g>
<defs>
<clipPath id="clip0_593751_827">
<rect width="16" height="16" fill="white"/>
</clipPath>
</defs>
</svg>
