<svg width="16" height="16" viewBox="0 0 16 16" fill="none" xmlns="http://www.w3.org/2000/svg">
<g id="twitter 1" clip-path="url(#clip0_593751_817)">
<g id="Group">
<g id="Group_2">
<path id="Vector" d="M16 3.03888C15.405 3.29988 14.771 3.47288 14.11 3.55688C14.79 3.15088 15.309 2.51288 15.553 1.74388C14.919 2.12188 14.219 2.38888 13.473 2.53788C12.871 1.89688 12.013 1.49988 11.077 1.49988C9.26097 1.49988 7.79897 2.97388 7.79897 4.78088C7.79897 5.04088 7.82097 5.29088 7.87497 5.52888C5.14797 5.39588 2.73497 4.08888 1.11397 2.09788C0.830969 2.58888 0.66497 3.15088 0.66497 3.75588C0.66497 4.89188 1.24997 5.89888 2.12197 6.48188C1.59497 6.47188 1.07797 6.31888 0.639969 6.07788C0.639969 6.08788 0.639969 6.10088 0.639969 6.11388C0.639969 7.70788 1.77697 9.03188 3.26797 9.33688C3.00097 9.40988 2.70997 9.44488 2.40797 9.44488C2.19797 9.44488 1.98597 9.43288 1.78697 9.38888C2.21197 10.6879 3.41797 11.6429 4.85197 11.6739C3.73597 12.5469 2.31897 13.0729 0.78497 13.0729C0.51597 13.0729 0.257969 13.0609 -3.05176e-05 13.0279C1.45297 13.9649 3.17497 14.4999 5.03197 14.4999C11.068 14.4999 14.368 9.49988 14.368 5.16588C14.368 5.02088 14.363 4.88088 14.356 4.74188C15.007 4.27988 15.554 3.70288 16 3.03888Z" fill="#F4F4FD"/>
</g>
</g>
</g>
<defs>
<clipPath id="clip0_593751_817">
<rect width="16" height="16" fill="white"/>
</clipPath>
</defs>
</svg>
